<?xml version="1.0" encoding="UTF-8" ?>
<!DOCTYPE svg PUBLIC "-//W3C//DTD SVG 1.1//EN" "http://www.w3.org/Graphics/SVG/1.1/DTD/svg11.dtd">
<svg width="128pt" height="128pt" viewBox="0 0 128 128" version="1.1" xmlns="http://www.w3.org/2000/svg">
<g id="#090f10ff">
<path fill="#090f10" opacity="1.00" d=" M 87.02 9.25 C 90.01 9.50 92.82 7.21 95.76 8.36 C 98.81 9.43 102.10 8.99 105.20 9.68 C 106.64 10.66 106.71 12.54 107.12 14.06 C 107.99 18.47 108.75 22.91 109.51 27.35 C 106.03 27.29 102.55 27.30 99.07 27.32 C 99.80 36.83 100.99 46.29 101.76 55.80 C 106.18 55.89 110.59 55.89 115.01 55.84 C 116.69 70.93 121.92 85.77 119.99 101.09 C 119.73 102.56 119.28 103.98 118.72 105.36 C 119.57 101.19 119.98 96.95 119.91 92.70 C 115.82 95.86 110.69 96.76 105.65 96.62 C 105.37 100.30 105.05 103.98 104.68 107.66 C 108.81 107.77 113.02 107.81 116.99 106.51 C 117.39 106.67 118.19 106.97 118.59 107.12 C 116.04 108.72 113.11 109.61 110.10 109.53 C 105.10 109.41 99.90 112.39 95.12 109.73 C 70.79 109.50 46.46 109.69 22.13 109.63 C 21.75 113.53 21.36 117.44 21.30 121.37 C 18.99 121.60 16.66 121.64 14.34 121.47 C 14.52 120.12 14.75 118.78 15.05 117.45 C 16.85 117.46 18.65 117.47 20.45 117.50 C 20.49 116.14 20.55 114.78 20.60 113.43 C 19.05 113.49 17.50 113.55 15.95 113.61 C 15.83 112.32 15.71 111.03 15.60 109.74 C 13.63 109.41 11.25 109.73 9.80 108.06 C 7.80 105.91 8.29 102.70 8.32 100.00 C 9.85 85.19 12.99 70.59 14.84 55.82 C 41.43 55.82 68.02 55.90 94.61 55.83 C 94.36 52.88 94.05 49.94 93.72 47.01 C 93.39 40.44 92.50 33.93 92.22 27.36 C 68.45 27.27 44.68 27.38 20.91 27.35 C 20.39 28.12 19.84 28.87 19.27 29.59 C 19.20 29.67 19.06 29.83 19.00 29.92 C 20.94 24.02 21.28 17.78 22.84 11.80 C 23.21 9.29 25.97 9.16 27.95 9.23 C 47.64 9.26 67.33 9.21 87.02 9.25 M 10.34 103.95 C 10.57 106.64 13.43 107.36 15.56 108.00 C 15.68 105.84 15.88 103.67 16.48 101.58 C 16.18 101.34 15.58 100.86 15.28 100.62 C 19.90 100.07 24.58 99.52 29.17 100.54 C 26.99 100.63 24.81 100.64 22.63 100.71 C 22.38 103.02 22.23 105.33 22.11 107.65 C 46.95 107.65 71.79 107.65 96.63 107.69 C 96.99 103.96 97.34 100.23 97.69 96.50 C 69.79 96.62 41.88 96.45 13.98 96.64 C 10.03 96.33 9.74 101.15 10.34 103.95 Z" />
</g>
<g id="#ffbb25ff">
<path fill="#ffbb25" opacity="1.00" d=" M 99.07 27.32 C 102.55 27.30 106.03 27.29 109.51 27.35 L 109.93 27.35 C 111.62 36.85 113.37 46.34 115.01 55.84 C 110.59 55.89 106.18 55.89 101.76 55.80 C 100.99 46.29 99.80 36.83 99.07 27.32 Z" />
<path fill="#ffbb25" opacity="1.00" d=" M 19.27 29.59 C 19.84 28.87 20.39 28.12 20.91 27.35 C 44.68 27.38 68.45 27.27 92.22 27.36 C 92.50 33.93 93.39 40.44 93.72 47.01 C 94.05 49.94 94.36 52.88 94.61 55.83 C 68.02 55.90 41.43 55.82 14.84 55.82 C 16.22 47.14 17.83 38.50 19.10 29.80 L 19.27 29.59 Z" />
<path fill="#ffbb25" opacity="1.00" d=" M 15.95 113.61 C 17.50 113.55 19.05 113.49 20.60 113.43 C 20.55 114.78 20.49 116.14 20.45 117.50 C 18.65 117.47 16.85 117.46 15.05 117.45 C 15.43 116.19 15.70 114.90 15.95 113.61 Z" />
</g>
<g id="#f6e7b4ff">
<path fill="#f6e7b4" opacity="1.00" d=" M 105.65 96.62 C 110.69 96.76 115.82 95.86 119.91 92.70 C 119.98 96.95 119.57 101.19 118.72 105.36 L 118.59 106.10 C 118.19 106.21 117.39 106.41 116.99 106.51 C 113.02 107.81 108.81 107.77 104.68 107.66 C 105.05 103.98 105.37 100.30 105.65 96.62 Z" />
<path fill="#f6e7b4" opacity="1.00" d=" M 10.34 103.95 C 9.74 101.15 10.03 96.33 13.98 96.64 C 41.88 96.45 69.79 96.62 97.69 96.50 C 97.34 100.23 96.99 103.96 96.63 107.69 C 71.79 107.65 46.95 107.65 22.11 107.65 C 22.23 105.33 22.38 103.02 22.63 100.71 C 24.81 100.64 26.99 100.63 29.17 100.54 C 24.58 99.52 19.90 100.07 15.28 100.62 C 15.58 100.86 16.18 101.34 16.48 101.58 C 15.88 103.67 15.68 105.84 15.56 108.00 C 13.43 107.36 10.57 106.64 10.34 103.95 Z" />
</g>
</svg>
